<svg width="1600" height="900" viewBox="0 0 1600 900" fill="none" xmlns="http://www.w3.org/2000/svg">
  <rect width="1600" height="900" fill="#F6EFE3"/>
  <defs>
    <linearGradient id="bg" x1="180" y1="80" x2="1400" y2="820" gradientUnits="userSpaceOnUse">
      <stop stop-color="#FFF8EE"/>
      <stop offset="1" stop-color="#EDF5FF"/>
    </linearGradient>
    <linearGradient id="accent" x1="220" y1="210" x2="1260" y2="720" gradientUnits="userSpaceOnUse">
      <stop stop-color="#2563EB"/>
      <stop offset="1" stop-color="#0F766E"/>
    </linearGradient>
  </defs>
  <circle cx="160" cy="120" r="150" fill="#FDBA74" fill-opacity="0.18"/>
  <circle cx="1420" cy="180" r="170" fill="#60A5FA" fill-opacity="0.14"/>
  <rect x="82" y="62" width="1436" height="776" rx="36" fill="url(#bg)" stroke="#D9E4F3"/>
  <text x="150" y="156" fill="#9A3412" font-family="Segoe UI, Arial, sans-serif" font-size="28" font-weight="700" letter-spacing="3">STANDALONE RETRO AUDIO LAB</text>
  <text x="150" y="235" fill="#132238" font-family="Segoe UI, Arial, sans-serif" font-size="72" font-weight="800">Retro SFX Lab</text>
  <text x="150" y="292" fill="#566477" font-family="Segoe UI, Arial, sans-serif" font-size="28">A focused browser workbench for arcade-style procedural game audio.</text>

  <rect x="150" y="346" width="855" height="398" rx="28" fill="#FFFFFF" stroke="#DDE6F4"/>
  <text x="184" y="392" fill="#132238" font-family="Segoe UI, Arial, sans-serif" font-size="30" font-weight="700">Procedural SFX Workbench</text>
  <text x="184" y="430" fill="#6B7280" font-family="Segoe UI, Arial, sans-serif" font-size="20">Preset-driven workflow with waveform, envelope, pitch, modulation, texture, and filters.</text>
  <rect x="184" y="462" width="786" height="160" rx="20" fill="#F7FBFF" stroke="#DDE6F4"/>
  <path d="M214 542C254 470 290 470 334 542C378 614 420 614 456 542C493 470 536 470 574 542C611 614 650 614 690 542C730 470 774 470 811 542C849 614 894 614 935 542" stroke="url(#accent)" stroke-width="10" stroke-linecap="round"/>
  <rect x="184" y="648" width="172" height="56" rx="18" fill="#1D4ED8"/>
  <rect x="372" y="648" width="160" height="56" rx="18" fill="#E8EEF8"/>
  <rect x="548" y="648" width="170" height="56" rx="18" fill="#7C3AED"/>
  <rect x="734" y="648" width="196" height="56" rx="18" fill="#0F766E"/>
  <text x="234" y="684" fill="#FFFFFF" font-family="Segoe UI, Arial, sans-serif" font-size="22" font-weight="700">Play</text>
  <text x="420" y="684" fill="#475569" font-family="Segoe UI, Arial, sans-serif" font-size="22" font-weight="700">Stop</text>
  <text x="591" y="684" fill="#FFFFFF" font-family="Segoe UI, Arial, sans-serif" font-size="22" font-weight="700">WAV Export</text>
  <text x="786" y="684" fill="#FFFFFF" font-family="Segoe UI, Arial, sans-serif" font-size="22" font-weight="700">JSON Export</text>

  <rect x="1042" y="346" width="390" height="398" rx="28" fill="#FFFFFF" stroke="#DDE6F4"/>
  <text x="1074" y="392" fill="#132238" font-family="Segoe UI, Arial, sans-serif" font-size="30" font-weight="700">What You Get</text>
  <text x="1074" y="444" fill="#566477" font-family="Segoe UI, Arial, sans-serif" font-size="24">• Coin, laser, explosion, jump, click presets</text>
  <text x="1074" y="490" fill="#566477" font-family="Segoe UI, Arial, sans-serif" font-size="24">• Realtime waveform preview</text>
  <text x="1074" y="536" fill="#566477" font-family="Segoe UI, Arial, sans-serif" font-size="24">• Browser playback and parameter tweaking</text>
  <text x="1074" y="582" fill="#566477" font-family="Segoe UI, Arial, sans-serif" font-size="24">• WAV + JSON save workflow</text>
  <text x="1074" y="628" fill="#566477" font-family="Segoe UI, Arial, sans-serif" font-size="24">• GitHub Pages friendly static deployment</text>
  <rect x="1074" y="664" width="274" height="44" rx="14" fill="#EEF5FF"/>
  <text x="1098" y="693" fill="#2563EB" font-family="Segoe UI, Arial, sans-serif" font-size="22" font-weight="700">mowangblog/game-sfx-generator-web</text>
</svg>
