<svg width="1400" height="860" viewBox="0 0 1400 860" fill="none" xmlns="http://www.w3.org/2000/svg">
  <rect width="1400" height="860" fill="#F4F7FB"/>
  <rect x="70" y="52" width="1260" height="756" rx="32" fill="#FFFFFF" stroke="#DDE6F4"/>
  <text x="122" y="116" fill="#132238" font-family="Segoe UI, Arial, sans-serif" font-size="42" font-weight="800">Workbench Overview</text>
  <rect x="122" y="152" width="742" height="596" rx="26" fill="#FFF9F0" stroke="#E9D7C0"/>
  <text x="154" y="196" fill="#9A3412" font-family="Segoe UI, Arial, sans-serif" font-size="26" font-weight="700">Controls</text>
  <rect x="154" y="224" width="312" height="116" rx="20" fill="#FFFFFF" stroke="#DDE6F4"/>
  <rect x="490" y="224" width="342" height="116" rx="20" fill="#FFFFFF" stroke="#DDE6F4"/>
  <rect x="154" y="364" width="312" height="164" rx="20" fill="#FFFFFF" stroke="#DDE6F4"/>
  <rect x="490" y="364" width="342" height="164" rx="20" fill="#FFFFFF" stroke="#DDE6F4"/>
  <rect x="154" y="552" width="678" height="164" rx="20" fill="#FFFFFF" stroke="#DDE6F4"/>
  <text x="184" y="274" fill="#334155" font-family="Segoe UI, Arial, sans-serif" font-size="24" font-weight="700">Waveform</text>
  <text x="184" y="309" fill="#64748B" font-family="Segoe UI, Arial, sans-serif" font-size="20">Square / Saw / Sine / Noise</text>
  <text x="520" y="274" fill="#334155" font-family="Segoe UI, Arial, sans-serif" font-size="24" font-weight="700">Envelope + Frequency</text>
  <text x="520" y="309" fill="#64748B" font-family="Segoe UI, Arial, sans-serif" font-size="20">Attack, sustain, decay, pitch, slide</text>
  <text x="184" y="414" fill="#334155" font-family="Segoe UI, Arial, sans-serif" font-size="24" font-weight="700">Modulation</text>
  <text x="184" y="449" fill="#64748B" font-family="Segoe UI, Arial, sans-serif" font-size="20">Vibrato depth, speed, arpeggio</text>
  <text x="520" y="414" fill="#334155" font-family="Segoe UI, Arial, sans-serif" font-size="24" font-weight="700">Texture</text>
  <text x="520" y="449" fill="#64748B" font-family="Segoe UI, Arial, sans-serif" font-size="20">Duty sweep, repeat, phaser</text>
  <text x="184" y="602" fill="#334155" font-family="Segoe UI, Arial, sans-serif" font-size="24" font-weight="700">Filters</text>
  <text x="184" y="637" fill="#64748B" font-family="Segoe UI, Arial, sans-serif" font-size="20">Low-pass, resonance, high-pass, volume</text>

  <rect x="902" y="152" width="376" height="596" rx="26" fill="#F8FBFF" stroke="#DDE6F4"/>
  <text x="934" y="196" fill="#2563EB" font-family="Segoe UI, Arial, sans-serif" font-size="26" font-weight="700">Preview & Export</text>
  <rect x="934" y="224" width="312" height="182" rx="20" fill="#FFFFFF" stroke="#DDE6F4"/>
  <path d="M960 316C994 254 1026 254 1062 316C1098 378 1132 378 1168 316C1204 254 1236 254 1270 316" stroke="#2563EB" stroke-width="9" stroke-linecap="round"/>
  <rect x="934" y="438" width="144" height="52" rx="16" fill="#1D4ED8"/>
  <rect x="1092" y="438" width="154" height="52" rx="16" fill="#E9EEF8"/>
  <rect x="934" y="506" width="144" height="52" rx="16" fill="#7C3AED"/>
  <rect x="1092" y="506" width="154" height="52" rx="16" fill="#0F766E"/>
  <text x="983" y="472" fill="#FFFFFF" font-family="Segoe UI, Arial, sans-serif" font-size="20" font-weight="700">Play</text>
  <text x="1145" y="472" fill="#475569" font-family="Segoe UI, Arial, sans-serif" font-size="20" font-weight="700">Stop</text>
  <text x="971" y="540" fill="#FFFFFF" font-family="Segoe UI, Arial, sans-serif" font-size="20" font-weight="700">WAV</text>
  <text x="1143" y="540" fill="#FFFFFF" font-family="Segoe UI, Arial, sans-serif" font-size="20" font-weight="700">JSON</text>
  <rect x="934" y="584" width="312" height="132" rx="20" fill="#FFFFFF" stroke="#DDE6F4"/>
  <text x="966" y="628" fill="#334155" font-family="Segoe UI, Arial, sans-serif" font-size="24" font-weight="700">Parameter JSON</text>
  <text x="966" y="664" fill="#64748B" font-family="Segoe UI, Arial, sans-serif" font-size="20">Copy, save, and reload patches</text>
</svg>
